# xmcd CD Database Entry
#
# Track frame offsets:
# 183
# 22205
# 43238
# 64780
# 84705
# 101370
# 122615
# 143588
# 181573
# 200895
# 222398
#
# Disc length: 3175 seconds
#
# Revision: 1
# Processed by: cddbd v1.4b42PL0 Copyright (c) Steve Scherf et al.
# Submitted via: tcd 2.0b
#
DISCID=9f0c650b
DTITLE=Simonetti - X-Terror Files 2
DYEAR=1900
DGENRE=
TTITLE0=Aliens - Alien 2 "End Titles"
TTITLE1=Friday The 13th - venerdì 13 "Meurtres en 3 dimensions"
TTITLE2=Lo squalo - "Theme from "Jaws" main title"
TTITLE3=Nightmare
TTITLE4=Manhunter - Frammenti di un omicidio " in a gadda davida"
TTITLE5=The silence of the lambs "Il silenzio degli innocenti"
TTITLE6=The lost world - Jurassic park "finale"
TTITLE7=Megamix mendley Argento
TTITLE8=Halloween II "Theme"
TTITLE9=The 5th Element
TTITLE10=Jurassic Park "Theme end titles"
EXTD=
EXTT0=
EXTT1=
EXTT2=
EXTT3=
EXTT4=
EXTT5=
EXTT6=
EXTT7=
EXTT8=
EXTT9=
EXTT10=
PLAYORDER=
